<mxfile host="app.diagrams.net" modified="2022-03-03T12:09:15.518Z" agent="5.0 (Windows NT 10.0; Win64; x64) AppleWebKit/537.36 (KHTML, like Gecko) Chrome/98.0.4758.102 Safari/537.36" etag="oKXqtnuBxlix-jV_LE2E" version="16.6.4" type="github">
  <diagram id="7Q6d0gSe2RfeiBhIu6H1" name="Page-1">
    <mxGraphModel dx="1872" dy="436" grid="1" gridSize="10" guides="1" tooltips="1" connect="1" arrows="1" fold="1" page="1" pageScale="1" pageWidth="850" pageHeight="1100" math="0" shadow="0">
      <root>
        <mxCell id="0" />
        <mxCell id="1" parent="0" />
        <mxCell id="qzB6tSZT5ePcG6Z2w_7R-3" value="AWS Cloud" style="points=[[0,0],[0.25,0],[0.5,0],[0.75,0],[1,0],[1,0.25],[1,0.5],[1,0.75],[1,1],[0.75,1],[0.5,1],[0.25,1],[0,1],[0,0.75],[0,0.5],[0,0.25]];outlineConnect=0;gradientColor=none;html=1;whiteSpace=wrap;fontSize=12;fontStyle=0;container=1;pointerEvents=0;collapsible=0;recursiveResize=0;shape=mxgraph.aws4.group;grIcon=mxgraph.aws4.group_aws_cloud_alt;strokeColor=#232F3E;fillColor=none;verticalAlign=top;align=left;spacingLeft=30;fontColor=#232F3E;dashed=0;" parent="1" vertex="1">
          <mxGeometry x="50" y="40" width="960" height="430" as="geometry" />
        </mxCell>
        <mxCell id="qzB6tSZT5ePcG6Z2w_7R-4" value="Region" style="points=[[0,0],[0.25,0],[0.5,0],[0.75,0],[1,0],[1,0.25],[1,0.5],[1,0.75],[1,1],[0.75,1],[0.5,1],[0.25,1],[0,1],[0,0.75],[0,0.5],[0,0.25]];outlineConnect=0;gradientColor=none;html=1;whiteSpace=wrap;fontSize=12;fontStyle=0;container=1;pointerEvents=0;collapsible=0;recursiveResize=0;shape=mxgraph.aws4.group;grIcon=mxgraph.aws4.group_region;strokeColor=#147EBA;fillColor=none;verticalAlign=top;align=left;spacingLeft=30;fontColor=#147EBA;dashed=1;" parent="1" vertex="1">
          <mxGeometry x="80" y="70" width="900" height="380" as="geometry" />
        </mxCell>
        <mxCell id="iw8xefliiGtKPW58excf-16" style="edgeStyle=orthogonalEdgeStyle;rounded=0;orthogonalLoop=1;jettySize=auto;html=1;exitX=1;exitY=0.5;exitDx=0;exitDy=0;exitPerimeter=0;" parent="qzB6tSZT5ePcG6Z2w_7R-4" source="iw8xefliiGtKPW58excf-3" target="iw8xefliiGtKPW58excf-4" edge="1">
          <mxGeometry relative="1" as="geometry" />
        </mxCell>
        <mxCell id="iw8xefliiGtKPW58excf-3" value="" style="sketch=0;points=[[0,0,0],[0.25,0,0],[0.5,0,0],[0.75,0,0],[1,0,0],[0,1,0],[0.25,1,0],[0.5,1,0],[0.75,1,0],[1,1,0],[0,0.25,0],[0,0.5,0],[0,0.75,0],[1,0.25,0],[1,0.5,0],[1,0.75,0]];outlineConnect=0;fontColor=#232F3E;gradientColor=#945DF2;gradientDirection=north;fillColor=#5A30B5;strokeColor=#ffffff;dashed=0;verticalLabelPosition=bottom;verticalAlign=top;align=center;html=1;fontSize=12;fontStyle=0;aspect=fixed;shape=mxgraph.aws4.resourceIcon;resIcon=mxgraph.aws4.kinesis_data_firehose;" parent="qzB6tSZT5ePcG6Z2w_7R-4" vertex="1">
          <mxGeometry x="20" y="100" width="48" height="48" as="geometry" />
        </mxCell>
        <mxCell id="iw8xefliiGtKPW58excf-17" value="" style="edgeStyle=orthogonalEdgeStyle;rounded=0;orthogonalLoop=1;jettySize=auto;html=1;" parent="qzB6tSZT5ePcG6Z2w_7R-4" source="iw8xefliiGtKPW58excf-4" target="iw8xefliiGtKPW58excf-5" edge="1">
          <mxGeometry relative="1" as="geometry" />
        </mxCell>
        <mxCell id="iw8xefliiGtKPW58excf-4" value="" style="sketch=0;outlineConnect=0;fontColor=#232F3E;gradientColor=none;fillColor=#3F8624;strokeColor=none;dashed=0;verticalLabelPosition=bottom;verticalAlign=top;align=center;html=1;fontSize=12;fontStyle=0;aspect=fixed;pointerEvents=1;shape=mxgraph.aws4.bucket;" parent="qzB6tSZT5ePcG6Z2w_7R-4" vertex="1">
          <mxGeometry x="112.5" y="101.2" width="45" height="46.8" as="geometry" />
        </mxCell>
        <mxCell id="iw8xefliiGtKPW58excf-18" style="edgeStyle=orthogonalEdgeStyle;rounded=0;orthogonalLoop=1;jettySize=auto;html=1;exitX=1;exitY=0.5;exitDx=0;exitDy=0;exitPerimeter=0;" parent="qzB6tSZT5ePcG6Z2w_7R-4" source="iw8xefliiGtKPW58excf-5" target="iw8xefliiGtKPW58excf-6" edge="1">
          <mxGeometry relative="1" as="geometry" />
        </mxCell>
        <mxCell id="iw8xefliiGtKPW58excf-5" value="" style="sketch=0;points=[[0,0,0],[0.25,0,0],[0.5,0,0],[0.75,0,0],[1,0,0],[0,1,0],[0.25,1,0],[0.5,1,0],[0.75,1,0],[1,1,0],[0,0.25,0],[0,0.5,0],[0,0.75,0],[1,0.25,0],[1,0.5,0],[1,0.75,0]];outlineConnect=0;fontColor=#232F3E;gradientColor=#945DF2;gradientDirection=north;fillColor=#5A30B5;strokeColor=#ffffff;dashed=0;verticalLabelPosition=bottom;verticalAlign=top;align=center;html=1;fontSize=12;fontStyle=0;aspect=fixed;shape=mxgraph.aws4.resourceIcon;resIcon=mxgraph.aws4.glue;" parent="qzB6tSZT5ePcG6Z2w_7R-4" vertex="1">
          <mxGeometry x="200" y="101.2" width="48" height="48" as="geometry" />
        </mxCell>
        <mxCell id="iw8xefliiGtKPW58excf-6" value="" style="sketch=0;outlineConnect=0;fontColor=#232F3E;gradientColor=none;fillColor=#3F8624;strokeColor=none;dashed=0;verticalLabelPosition=bottom;verticalAlign=top;align=center;html=1;fontSize=12;fontStyle=0;aspect=fixed;pointerEvents=1;shape=mxgraph.aws4.bucket;" parent="qzB6tSZT5ePcG6Z2w_7R-4" vertex="1">
          <mxGeometry x="280" y="100" width="45" height="46.8" as="geometry" />
        </mxCell>
        <mxCell id="iw8xefliiGtKPW58excf-9" value="" style="sketch=0;points=[[0,0,0],[0.25,0,0],[0.5,0,0],[0.75,0,0],[1,0,0],[0,1,0],[0.25,1,0],[0.5,1,0],[0.75,1,0],[1,1,0],[0,0.25,0],[0,0.5,0],[0,0.75,0],[1,0.25,0],[1,0.5,0],[1,0.75,0]];outlineConnect=0;fontColor=#232F3E;gradientColor=#4AB29A;gradientDirection=north;fillColor=#116D5B;strokeColor=#ffffff;dashed=0;verticalLabelPosition=bottom;verticalAlign=top;align=center;html=1;fontSize=12;fontStyle=0;aspect=fixed;shape=mxgraph.aws4.resourceIcon;resIcon=mxgraph.aws4.sagemaker;" parent="qzB6tSZT5ePcG6Z2w_7R-4" vertex="1">
          <mxGeometry x="660" y="220" width="48" height="48" as="geometry" />
        </mxCell>
        <mxCell id="iw8xefliiGtKPW58excf-10" value="" style="sketch=0;points=[[0,0,0],[0.25,0,0],[0.5,0,0],[0.75,0,0],[1,0,0],[0,1,0],[0.25,1,0],[0.5,1,0],[0.75,1,0],[1,1,0],[0,0.25,0],[0,0.5,0],[0,0.75,0],[1,0.25,0],[1,0.5,0],[1,0.75,0]];outlineConnect=0;fontColor=#232F3E;gradientColor=#60A337;gradientDirection=north;fillColor=#277116;strokeColor=#ffffff;dashed=0;verticalLabelPosition=bottom;verticalAlign=top;align=center;html=1;fontSize=12;fontStyle=0;aspect=fixed;shape=mxgraph.aws4.resourceIcon;resIcon=mxgraph.aws4.glacier;" parent="qzB6tSZT5ePcG6Z2w_7R-4" vertex="1">
          <mxGeometry x="550" y="220" width="48" height="48" as="geometry" />
        </mxCell>
        <mxCell id="iw8xefliiGtKPW58excf-12" value="" style="sketch=0;points=[[0,0,0],[0.25,0,0],[0.5,0,0],[0.75,0,0],[1,0,0],[0,1,0],[0.25,1,0],[0.5,1,0],[0.75,1,0],[1,1,0],[0,0.25,0],[0,0.5,0],[0,0.75,0],[1,0.25,0],[1,0.5,0],[1,0.75,0]];outlineConnect=0;fontColor=#232F3E;gradientColor=#F78E04;gradientDirection=north;fillColor=#D05C17;strokeColor=#ffffff;dashed=0;verticalLabelPosition=bottom;verticalAlign=top;align=center;html=1;fontSize=12;fontStyle=0;aspect=fixed;shape=mxgraph.aws4.resourceIcon;resIcon=mxgraph.aws4.lambda;" parent="qzB6tSZT5ePcG6Z2w_7R-4" vertex="1">
          <mxGeometry x="740" y="210" width="48" height="48" as="geometry" />
        </mxCell>
        <mxCell id="iw8xefliiGtKPW58excf-38" value="" style="edgeStyle=orthogonalEdgeStyle;rounded=0;orthogonalLoop=1;jettySize=auto;html=1;startArrow=none;startFill=0;endArrow=classic;endFill=1;" parent="qzB6tSZT5ePcG6Z2w_7R-4" source="iw8xefliiGtKPW58excf-13" target="iw8xefliiGtKPW58excf-14" edge="1">
          <mxGeometry relative="1" as="geometry" />
        </mxCell>
        <mxCell id="iw8xefliiGtKPW58excf-13" value="" style="sketch=0;points=[[0,0,0],[0.25,0,0],[0.5,0,0],[0.75,0,0],[1,0,0],[0,1,0],[0.25,1,0],[0.5,1,0],[0.75,1,0],[1,1,0],[0,0.25,0],[0,0.5,0],[0,0.75,0],[1,0.25,0],[1,0.5,0],[1,0.75,0]];outlineConnect=0;fontColor=#232F3E;gradientColor=#945DF2;gradientDirection=north;fillColor=#5A30B5;strokeColor=#ffffff;dashed=0;verticalLabelPosition=bottom;verticalAlign=top;align=center;html=1;fontSize=12;fontStyle=0;aspect=fixed;shape=mxgraph.aws4.resourceIcon;resIcon=mxgraph.aws4.kinesis_data_streams;" parent="qzB6tSZT5ePcG6Z2w_7R-4" vertex="1">
          <mxGeometry x="20" y="250" width="48" height="48" as="geometry" />
        </mxCell>
        <mxCell id="iw8xefliiGtKPW58excf-39" value="" style="edgeStyle=orthogonalEdgeStyle;rounded=0;orthogonalLoop=1;jettySize=auto;html=1;startArrow=none;startFill=0;" parent="qzB6tSZT5ePcG6Z2w_7R-4" source="iw8xefliiGtKPW58excf-14" target="iw8xefliiGtKPW58excf-15" edge="1">
          <mxGeometry relative="1" as="geometry" />
        </mxCell>
        <mxCell id="iw8xefliiGtKPW58excf-14" value="" style="sketch=0;points=[[0,0,0],[0.25,0,0],[0.5,0,0],[0.75,0,0],[1,0,0],[0,1,0],[0.25,1,0],[0.5,1,0],[0.75,1,0],[1,1,0],[0,0.25,0],[0,0.5,0],[0,0.75,0],[1,0.25,0],[1,0.5,0],[1,0.75,0]];outlineConnect=0;fontColor=#232F3E;gradientColor=#945DF2;gradientDirection=north;fillColor=#5A30B5;strokeColor=#ffffff;dashed=0;verticalLabelPosition=bottom;verticalAlign=top;align=center;html=1;fontSize=12;fontStyle=0;aspect=fixed;shape=mxgraph.aws4.resourceIcon;resIcon=mxgraph.aws4.kinesis_data_analytics;" parent="qzB6tSZT5ePcG6Z2w_7R-4" vertex="1">
          <mxGeometry x="107.5" y="249" width="50" height="50" as="geometry" />
        </mxCell>
        <mxCell id="iw8xefliiGtKPW58excf-40" style="edgeStyle=orthogonalEdgeStyle;rounded=0;orthogonalLoop=1;jettySize=auto;html=1;exitX=0;exitY=0;exitDx=0;exitDy=0;exitPerimeter=0;startArrow=classic;startFill=1;" parent="qzB6tSZT5ePcG6Z2w_7R-4" source="iw8xefliiGtKPW58excf-15" target="iw8xefliiGtKPW58excf-4" edge="1">
          <mxGeometry relative="1" as="geometry" />
        </mxCell>
        <mxCell id="iw8xefliiGtKPW58excf-15" value="" style="sketch=0;points=[[0,0,0],[0.25,0,0],[0.5,0,0],[0.75,0,0],[1,0,0],[0,1,0],[0.25,1,0],[0.5,1,0],[0.75,1,0],[1,1,0],[0,0.25,0],[0,0.5,0],[0,0.75,0],[1,0.25,0],[1,0.5,0],[1,0.75,0]];outlineConnect=0;fontColor=#232F3E;gradientColor=#945DF2;gradientDirection=north;fillColor=#5A30B5;strokeColor=#ffffff;dashed=0;verticalLabelPosition=bottom;verticalAlign=top;align=center;html=1;fontSize=12;fontStyle=0;aspect=fixed;shape=mxgraph.aws4.resourceIcon;resIcon=mxgraph.aws4.kinesis_data_firehose;" parent="qzB6tSZT5ePcG6Z2w_7R-4" vertex="1">
          <mxGeometry x="200" y="250" width="48" height="48" as="geometry" />
        </mxCell>
        <mxCell id="iw8xefliiGtKPW58excf-21" value="VPC" style="points=[[0,0],[0.25,0],[0.5,0],[0.75,0],[1,0],[1,0.25],[1,0.5],[1,0.75],[1,1],[0.75,1],[0.5,1],[0.25,1],[0,1],[0,0.75],[0,0.5],[0,0.25]];outlineConnect=0;gradientColor=none;html=1;whiteSpace=wrap;fontSize=12;fontStyle=0;container=1;pointerEvents=0;collapsible=0;recursiveResize=0;shape=mxgraph.aws4.group;grIcon=mxgraph.aws4.group_vpc;strokeColor=#248814;fillColor=none;verticalAlign=top;align=left;spacingLeft=30;fontColor=#AAB7B8;dashed=0;" parent="qzB6tSZT5ePcG6Z2w_7R-4" vertex="1">
          <mxGeometry x="360" y="10" width="520" height="180" as="geometry" />
        </mxCell>
        <mxCell id="iw8xefliiGtKPW58excf-26" value="Availability zone" style="sketch=0;outlineConnect=0;gradientColor=none;html=1;whiteSpace=wrap;fontSize=12;fontStyle=0;shape=mxgraph.aws4.group;grIcon=mxgraph.aws4.group_availability_zone;strokeColor=#545B64;fillColor=none;verticalAlign=top;align=left;spacingLeft=30;fontColor=#545B64;dashed=1;" parent="iw8xefliiGtKPW58excf-21" vertex="1">
          <mxGeometry x="40" y="20" width="451" height="140" as="geometry" />
        </mxCell>
        <mxCell id="iw8xefliiGtKPW58excf-22" value="Private subnet" style="points=[[0,0],[0.25,0],[0.5,0],[0.75,0],[1,0],[1,0.25],[1,0.5],[1,0.75],[1,1],[0.75,1],[0.5,1],[0.25,1],[0,1],[0,0.75],[0,0.5],[0,0.25]];outlineConnect=0;gradientColor=none;html=1;whiteSpace=wrap;fontSize=12;fontStyle=0;container=1;pointerEvents=0;collapsible=0;recursiveResize=0;shape=mxgraph.aws4.group;grIcon=mxgraph.aws4.group_security_group;grStroke=0;strokeColor=#147EBA;fillColor=#E6F2F8;verticalAlign=top;align=left;spacingLeft=30;fontColor=#147EBA;dashed=0;" parent="iw8xefliiGtKPW58excf-21" vertex="1">
          <mxGeometry x="235.25" y="50" width="240.5" height="102" as="geometry" />
        </mxCell>
        <mxCell id="iw8xefliiGtKPW58excf-8" value="" style="sketch=0;points=[[0,0,0],[0.25,0,0],[0.5,0,0],[0.75,0,0],[1,0,0],[0,1,0],[0.25,1,0],[0.5,1,0],[0.75,1,0],[1,1,0],[0,0.25,0],[0,0.5,0],[0,0.75,0],[1,0.25,0],[1,0.5,0],[1,0.75,0]];outlineConnect=0;fontColor=#232F3E;gradientColor=#4D72F3;gradientDirection=north;fillColor=#3334B9;strokeColor=#ffffff;dashed=0;verticalLabelPosition=bottom;verticalAlign=top;align=center;html=1;fontSize=12;fontStyle=0;aspect=fixed;shape=mxgraph.aws4.resourceIcon;resIcon=mxgraph.aws4.redshift;" parent="iw8xefliiGtKPW58excf-22" vertex="1">
          <mxGeometry x="30" y="32" width="48" height="48" as="geometry" />
        </mxCell>
        <mxCell id="iw8xefliiGtKPW58excf-11" value="" style="sketch=0;points=[[0,0,0],[0.25,0,0],[0.5,0,0],[0.75,0,0],[1,0,0],[0,1,0],[0.25,1,0],[0.5,1,0],[0.75,1,0],[1,1,0],[0,0.25,0],[0,0.5,0],[0,0.75,0],[1,0.25,0],[1,0.5,0],[1,0.75,0]];outlineConnect=0;fontColor=#232F3E;gradientColor=#4D72F3;gradientDirection=north;fillColor=#3334B9;strokeColor=#ffffff;dashed=0;verticalLabelPosition=bottom;verticalAlign=top;align=center;html=1;fontSize=12;fontStyle=0;aspect=fixed;shape=mxgraph.aws4.resourceIcon;resIcon=mxgraph.aws4.dynamodb;" parent="iw8xefliiGtKPW58excf-22" vertex="1">
          <mxGeometry x="130" y="32" width="48" height="48" as="geometry" />
        </mxCell>
        <mxCell id="iw8xefliiGtKPW58excf-31" value="Public subnet" style="points=[[0,0],[0.25,0],[0.5,0],[0.75,0],[1,0],[1,0.25],[1,0.5],[1,0.75],[1,1],[0.75,1],[0.5,1],[0.25,1],[0,1],[0,0.75],[0,0.5],[0,0.25]];outlineConnect=0;gradientColor=none;html=1;whiteSpace=wrap;fontSize=12;fontStyle=0;container=1;pointerEvents=0;collapsible=0;recursiveResize=0;shape=mxgraph.aws4.group;grIcon=mxgraph.aws4.group_security_group;grStroke=0;strokeColor=#248814;fillColor=#E9F3E6;verticalAlign=top;align=left;spacingLeft=30;fontColor=#248814;dashed=0;" parent="iw8xefliiGtKPW58excf-21" vertex="1">
          <mxGeometry x="50" y="53.4" width="170" height="96.6" as="geometry" />
        </mxCell>
        <mxCell id="iw8xefliiGtKPW58excf-29" value="NAT gateway" style="sketch=0;outlineConnect=0;fontColor=#232F3E;gradientColor=none;strokeColor=#232F3E;fillColor=#ffffff;dashed=0;verticalLabelPosition=bottom;verticalAlign=top;align=center;html=1;fontSize=12;fontStyle=0;aspect=fixed;shape=mxgraph.aws4.resourceIcon;resIcon=mxgraph.aws4.nat_gateway;" parent="iw8xefliiGtKPW58excf-31" vertex="1">
          <mxGeometry x="50" y="27.599999999999994" width="40" height="40" as="geometry" />
        </mxCell>
        <mxCell id="iw8xefliiGtKPW58excf-41" value="" style="edgeStyle=orthogonalEdgeStyle;rounded=0;orthogonalLoop=1;jettySize=auto;html=1;startArrow=classic;startFill=1;dashed=1;" parent="iw8xefliiGtKPW58excf-21" source="iw8xefliiGtKPW58excf-29" target="iw8xefliiGtKPW58excf-22" edge="1">
          <mxGeometry relative="1" as="geometry">
            <Array as="points">
              <mxPoint x="230" y="101" />
              <mxPoint x="230" y="101" />
            </Array>
          </mxGeometry>
        </mxCell>
        <mxCell id="iw8xefliiGtKPW58excf-52" value="Internet &lt;br&gt;Gateway" style="text;html=1;resizable=0;autosize=1;align=center;verticalAlign=middle;points=[];fillColor=none;strokeColor=none;rounded=0;" parent="iw8xefliiGtKPW58excf-21" vertex="1">
          <mxGeometry x="-30" y="140" width="60" height="30" as="geometry" />
        </mxCell>
        <mxCell id="iw8xefliiGtKPW58excf-27" value="" style="edgeStyle=orthogonalEdgeStyle;rounded=0;orthogonalLoop=1;jettySize=auto;html=1;" parent="qzB6tSZT5ePcG6Z2w_7R-4" source="iw8xefliiGtKPW58excf-8" target="iw8xefliiGtKPW58excf-9" edge="1">
          <mxGeometry relative="1" as="geometry" />
        </mxCell>
        <mxCell id="iw8xefliiGtKPW58excf-28" style="edgeStyle=orthogonalEdgeStyle;rounded=0;orthogonalLoop=1;jettySize=auto;html=1;exitX=1;exitY=0;exitDx=0;exitDy=0;exitPerimeter=0;entryX=0.25;entryY=1;entryDx=0;entryDy=0;entryPerimeter=0;" parent="qzB6tSZT5ePcG6Z2w_7R-4" source="iw8xefliiGtKPW58excf-9" target="iw8xefliiGtKPW58excf-11" edge="1">
          <mxGeometry relative="1" as="geometry" />
        </mxCell>
        <mxCell id="iw8xefliiGtKPW58excf-30" value="" style="edgeStyle=orthogonalEdgeStyle;rounded=0;orthogonalLoop=1;jettySize=auto;html=1;endArrow=none;startArrow=classic;startFill=1;dashed=1;" parent="qzB6tSZT5ePcG6Z2w_7R-4" source="iw8xefliiGtKPW58excf-32" target="iw8xefliiGtKPW58excf-29" edge="1">
          <mxGeometry relative="1" as="geometry">
            <mxPoint x="404.9960165240486" y="193.4000000000001" as="sourcePoint" />
            <mxPoint x="705.25" y="186" as="targetPoint" />
          </mxGeometry>
        </mxCell>
        <mxCell id="iw8xefliiGtKPW58excf-32" value="" style="sketch=0;outlineConnect=0;fontColor=#232F3E;gradientColor=none;fillColor=#4D27AA;strokeColor=none;dashed=0;verticalLabelPosition=bottom;verticalAlign=top;align=center;html=1;fontSize=12;fontStyle=0;aspect=fixed;pointerEvents=1;shape=mxgraph.aws4.internet_gateway;" parent="qzB6tSZT5ePcG6Z2w_7R-4" vertex="1">
          <mxGeometry x="345" y="98.80000000000001" width="48" height="48" as="geometry" />
        </mxCell>
        <mxCell id="iw8xefliiGtKPW58excf-33" value="" style="edgeStyle=orthogonalEdgeStyle;rounded=0;orthogonalLoop=1;jettySize=auto;html=1;endArrow=none;" parent="qzB6tSZT5ePcG6Z2w_7R-4" source="iw8xefliiGtKPW58excf-6" target="iw8xefliiGtKPW58excf-32" edge="1">
          <mxGeometry relative="1" as="geometry">
            <mxPoint x="404.9960165240486" y="193.4000000000001" as="sourcePoint" />
            <mxPoint x="520" y="181.70000000000005" as="targetPoint" />
          </mxGeometry>
        </mxCell>
        <mxCell id="iw8xefliiGtKPW58excf-42" style="edgeStyle=orthogonalEdgeStyle;rounded=0;orthogonalLoop=1;jettySize=auto;html=1;exitX=1;exitY=0;exitDx=0;exitDy=0;exitPerimeter=0;entryX=0;entryY=0.75;entryDx=0;entryDy=0;entryPerimeter=0;startArrow=classic;startFill=1;endArrow=none;endFill=0;" parent="qzB6tSZT5ePcG6Z2w_7R-4" source="iw8xefliiGtKPW58excf-10" target="iw8xefliiGtKPW58excf-8" edge="1">
          <mxGeometry relative="1" as="geometry" />
        </mxCell>
        <mxCell id="iw8xefliiGtKPW58excf-43" style="edgeStyle=orthogonalEdgeStyle;rounded=0;orthogonalLoop=1;jettySize=auto;html=1;exitX=0.75;exitY=1;exitDx=0;exitDy=0;exitPerimeter=0;entryX=0.75;entryY=0;entryDx=0;entryDy=0;entryPerimeter=0;startArrow=none;startFill=0;endArrow=classic;endFill=1;" parent="qzB6tSZT5ePcG6Z2w_7R-4" source="iw8xefliiGtKPW58excf-11" target="iw8xefliiGtKPW58excf-12" edge="1">
          <mxGeometry relative="1" as="geometry" />
        </mxCell>
        <mxCell id="iw8xefliiGtKPW58excf-45" value="Kinesis&lt;br&gt;Firehose" style="text;html=1;resizable=0;autosize=1;align=center;verticalAlign=middle;points=[];fillColor=none;strokeColor=none;rounded=0;" parent="qzB6tSZT5ePcG6Z2w_7R-4" vertex="1">
          <mxGeometry x="10" y="155" width="60" height="30" as="geometry" />
        </mxCell>
        <mxCell id="iw8xefliiGtKPW58excf-46" value="S3" style="text;html=1;resizable=0;autosize=1;align=center;verticalAlign=middle;points=[];fillColor=none;strokeColor=none;rounded=0;" parent="qzB6tSZT5ePcG6Z2w_7R-4" vertex="1">
          <mxGeometry x="100" y="160" width="30" height="20" as="geometry" />
        </mxCell>
        <mxCell id="iw8xefliiGtKPW58excf-50" value="S3" style="text;html=1;resizable=0;autosize=1;align=center;verticalAlign=middle;points=[];fillColor=none;strokeColor=none;rounded=0;" parent="qzB6tSZT5ePcG6Z2w_7R-4" vertex="1">
          <mxGeometry x="280" y="155" width="30" height="20" as="geometry" />
        </mxCell>
        <mxCell id="iw8xefliiGtKPW58excf-51" value="AWS Glue" style="text;html=1;resizable=0;autosize=1;align=center;verticalAlign=middle;points=[];fillColor=none;strokeColor=none;rounded=0;" parent="qzB6tSZT5ePcG6Z2w_7R-4" vertex="1">
          <mxGeometry x="189" y="155" width="70" height="20" as="geometry" />
        </mxCell>
        <mxCell id="iw8xefliiGtKPW58excf-53" value="Kinesis&lt;br&gt;Data Stream" style="text;html=1;resizable=0;autosize=1;align=center;verticalAlign=middle;points=[];fillColor=none;strokeColor=none;rounded=0;" parent="qzB6tSZT5ePcG6Z2w_7R-4" vertex="1">
          <mxGeometry x="4" y="300" width="80" height="30" as="geometry" />
        </mxCell>
        <mxCell id="iw8xefliiGtKPW58excf-54" value="Kinesis&lt;br&gt;Firehose" style="text;html=1;resizable=0;autosize=1;align=center;verticalAlign=middle;points=[];fillColor=none;strokeColor=none;rounded=0;" parent="qzB6tSZT5ePcG6Z2w_7R-4" vertex="1">
          <mxGeometry x="189" y="300" width="60" height="30" as="geometry" />
        </mxCell>
        <mxCell id="iw8xefliiGtKPW58excf-55" value="Kinesis&lt;br&gt;Data Analytics" style="text;html=1;resizable=0;autosize=1;align=center;verticalAlign=middle;points=[];fillColor=none;strokeColor=none;rounded=0;" parent="qzB6tSZT5ePcG6Z2w_7R-4" vertex="1">
          <mxGeometry x="90" y="299" width="90" height="30" as="geometry" />
        </mxCell>
        <mxCell id="iw8xefliiGtKPW58excf-36" style="edgeStyle=orthogonalEdgeStyle;rounded=0;orthogonalLoop=1;jettySize=auto;html=1;entryX=0;entryY=0.75;entryDx=0;entryDy=0;entryPerimeter=0;startArrow=classic;startFill=1;" parent="1" source="iw8xefliiGtKPW58excf-2" target="iw8xefliiGtKPW58excf-3" edge="1">
          <mxGeometry relative="1" as="geometry">
            <Array as="points">
              <mxPoint x="40" y="274" />
              <mxPoint x="40" y="206" />
            </Array>
          </mxGeometry>
        </mxCell>
        <mxCell id="iw8xefliiGtKPW58excf-37" style="edgeStyle=orthogonalEdgeStyle;rounded=0;orthogonalLoop=1;jettySize=auto;html=1;entryX=0;entryY=0.5;entryDx=0;entryDy=0;entryPerimeter=0;startArrow=classic;startFill=1;" parent="1" source="iw8xefliiGtKPW58excf-2" target="iw8xefliiGtKPW58excf-13" edge="1">
          <mxGeometry relative="1" as="geometry">
            <Array as="points">
              <mxPoint x="40" y="274" />
              <mxPoint x="40" y="344" />
            </Array>
          </mxGeometry>
        </mxCell>
        <mxCell id="iw8xefliiGtKPW58excf-2" value="" style="sketch=0;outlineConnect=0;fontColor=#232F3E;gradientColor=none;fillColor=#232F3D;strokeColor=none;dashed=0;verticalLabelPosition=bottom;verticalAlign=top;align=center;html=1;fontSize=12;fontStyle=0;aspect=fixed;pointerEvents=1;shape=mxgraph.aws4.client;" parent="1" vertex="1">
          <mxGeometry x="-20" y="260" width="28" height="27.28" as="geometry" />
        </mxCell>
        <mxCell id="iw8xefliiGtKPW58excf-44" style="edgeStyle=orthogonalEdgeStyle;rounded=0;orthogonalLoop=1;jettySize=auto;html=1;exitX=0.5;exitY=1;exitDx=0;exitDy=0;exitPerimeter=0;startArrow=none;startFill=0;endArrow=classic;endFill=1;" parent="1" source="iw8xefliiGtKPW58excf-12" target="iw8xefliiGtKPW58excf-2" edge="1">
          <mxGeometry relative="1" as="geometry">
            <Array as="points">
              <mxPoint x="844" y="420" />
              <mxPoint x="-6" y="420" />
            </Array>
          </mxGeometry>
        </mxCell>
      </root>
    </mxGraphModel>
  </diagram>
</mxfile>
